<svg xmlns="http://www.w3.org/2000/svg" viewBox="0 0 512 512">
  <defs>
    <linearGradient id="tricolor" x1="0%" y1="0%" x2="0%" y2="100%">
      <stop offset="0%" style="stop-color:#FF9933;stop-opacity:1" /> <stop offset="50%" style="stop-color:#FFFFFF;stop-opacity:1" /> <stop offset="100%" style="stop-color:#138808;stop-opacity:1" /> </linearGradient>
    <line id="spoke" x1="0" y1="-25" x2="0" y2="-95" stroke="#000080" stroke-width="8" stroke-linecap="round" />
  </defs>

  <rect x="32" y="32" width="448" height="448" rx="128" ry="128" fill="url(#tricolor)" />

  <path d="M256 96c-88.37 0-160 64.48-160 144s71.63 144 160 144c18.37 0 36.12-2.87 52.75-8.12 30 26.62 74.75 38.12 107.25 40.12-15-27.75-20.25-54-17.38-77.12 10.63-16.62 17.38-35.62 17.38-56.12C416 160.48 344.37 96 256 96z" fill="#ffffff"/>

  <g transform="translate(256, 240) scale(0.7)">
      <circle cx="0" cy="0" r="100" fill="none" stroke="#000080" stroke-width="16" />
      <circle cx="0" cy="0" r="20" fill="#000080" />
      
      <g>
        <use href="#spoke" /> <use href="#spoke" transform="rotate(15)" />
        <use href="#spoke" transform="rotate(30)" />
        <use href="#spoke" transform="rotate(45)" />
        <use href="#spoke" transform="rotate(60)" />
        <use href="#spoke" transform="rotate(75)" />
        <use href="#spoke" transform="rotate(90)" />
        <use href="#spoke" transform="rotate(105)" />
        <use href="#spoke" transform="rotate(120)" />
        <use href="#spoke" transform="rotate(135)" />
        <use href="#spoke" transform="rotate(150)" />
        <use href="#spoke" transform="rotate(165)" />
        <use href="#spoke" transform="rotate(180)" />
        <use href="#spoke" transform="rotate(195)" />
        <use href="#spoke" transform="rotate(210)" />
        <use href="#spoke" transform="rotate(225)" />
        <use href="#spoke" transform="rotate(240)" />
        <use href="#spoke" transform="rotate(255)" />
        <use href="#spoke" transform="rotate(270)" />
        <use href="#spoke" transform="rotate(285)" />
        <use href="#spoke" transform="rotate(300)" />
        <use href="#spoke" transform="rotate(315)" />
        <use href="#spoke" transform="rotate(330)" />
        <use href="#spoke" transform="rotate(345)" />
      </g>
  </g>
</svg>